<svg xmlns="http://www.w3.org/2000/svg" viewBox="0 0 192.55 214.33"><defs><style>.cls-1{fill:#fff;}</style></defs><g id="Layer_2" data-name="Layer 2"><g id="Layer_1-2" data-name="Layer 1"><path class="cls-1" d="M3.37,210.83c-.14.11,0,.29.41.16l.26-.38Z"/><path class="cls-1" d="M6.44,210.85c.49-.25,1-.65.64-.88-.45.41-.6.3-1.08.78-.44.13-.79.05-.74-.09-.14.12-.69.07-.9.32a3.16,3.16,0,0,0,2.07-.35C6.61,210.67,6.46,210.79,6.44,210.85Z"/><path class="cls-1" d="M49,200.21l-.28.06Z"/><path class="cls-1" d="M74.16,190c-.19.09-.25.16-.25.19C74.08,190,74.21,190,74.16,190Z"/><path class="cls-1" d="M78.47,188.17l-.25.1A.52.52,0,0,0,78.47,188.17Z"/><path class="cls-1" d="M49,200.21l.72-.14C49.69,200,49.3,200.12,49,200.21Z"/><path class="cls-1" d="M12.21,208.92a1.79,1.79,0,0,0-.37.16l.36-.11S12.21,208.94,12.21,208.92Z"/><path class="cls-1" d="M37.63,204.19l-.21.06a1.33,1.33,0,0,0-.14.19Z"/><path class="cls-1" d="M28.79,206.79c.2,0,.2-.33.25-.46a.84.84,0,0,1-.39.29A.29.29,0,0,0,28.79,206.79Z"/><path class="cls-1" d="M14.46,209.64l-.24.09Z"/><path class="cls-1" d="M44,202.3a.26.26,0,0,0,.11.07S44,202.31,44,202.3Z"/><path class="cls-1" d="M190,10.62h.05C190.05,10.57,190,10.55,190,10.62Z"/><path class="cls-1" d="M191.64,0l0,.14a.4.4,0,0,0,.15,0Z"/><path class="cls-1" d="M86.18,184.48l0,0C86,184.64,86.07,184.57,86.18,184.48Z"/><path class="cls-1" d="M145.66,134.13c-.76.53.66-1.31-.4-.46C145.42,133.65,144.83,134.89,145.66,134.13Z"/><path class="cls-1" d="M12.45,208.91l.37-.08A2.76,2.76,0,0,0,12.45,208.91Z"/><path class="cls-1" d="M145.26,133.67h0l-.1.09Z"/><path class="cls-1" d="M102.77,173.92a.5.5,0,0,0-.24,0S102.61,174,102.77,173.92Z"/><path class="cls-1" d="M90.21,181.44l.33-.15A2.1,2.1,0,0,0,90.21,181.44Z"/><path class="cls-1" d="M108.7,169.14a1.64,1.64,0,0,0,.44-.3l-.09,0A.76.76,0,0,1,108.7,169.14Z"/><path class="cls-1" d="M114.94,164.3l-.15,0-.18.17Z"/><path class="cls-1" d="M187.64,34.27a1,1,0,0,1,.3-.32C187.73,34,187.83,32.89,187.64,34.27Z"/><path class="cls-1" d="M12.25,209.07c0-.08.09-.12.2-.16l-.25.06C12.19,209,12.19,209.06,12.25,209.07Z"/><path class="cls-1" d="M107.63,167.17l1-.7C108.35,166.65,108,166.91,107.63,167.17Z"/><path class="cls-1" d="M171.38,87.88l.09-.27A.66.66,0,0,0,171.38,87.88Z"/><path class="cls-1" d="M111.56,164.21a3,3,0,0,0,.66-.29.66.66,0,0,0,.07-.15Z"/><path class="cls-1" d="M188,34h0Z"/><path class="cls-1" d="M188.45,25.75c-.15,1.17.3.6.48.88-.07,1.41-.35.61-.6,1.06a14.37,14.37,0,0,1,.11,2.26c-.07,0-.11.16-.16,0,.14,1-.42,2.74-.22,3.88-.05.07-.08.11-.11.12a.52.52,0,0,1,.52-.08c-.07.53.08,1-.19,1.17a.64.64,0,0,0-.09-.52l0,.56c-.42.44,0-.77-.25-.81a14.23,14.23,0,0,1-.24,3.2c-.37.11.26-1.94-.25-.9.13-.41.22-.83.34-1.25-.68.88.16-.77-.55,0-.36,1.66-.17,1.89-.58,3.54.11.4.3-.08.41.33-.13,2.43-1.2,1.69-1.09,3.52a2,2,0,0,1,0,1.94l-.28-.5c-.41,1.59.33,1-.32,2.65-.07-.33.17-1.29.07-1-.55,1,0,.81-.16,1.65l-.37.09c-.37,1.71-.5,3.66-1,5.54-.07-.13-.09-.48-.31-.07a44.9,44.9,0,0,1-2.25,7.22l0,.94c-.07.2-.25.34-.23.1-.39.85.16.1.14.56s-.37.61-.35.26a22.42,22.42,0,0,1-1.71,6.09l0-.34c-.56,1.21.07,1.61-.61,2.68l0-.24c-1.09,2.67-1.87,5.79-3.16,7.65.24.55-1.24,2.58-.76,3a23.33,23.33,0,0,0-1.87,3c-.28.55,0,1-.3,1.71l-.29-.11-.13,1.08-.56.35-.22.69c.13-.25.37-.5.44-.42a5.48,5.48,0,0,1-1.48,2.36c-.29.84-.54,1.7-.87,2.52-.09-.11.09-.52.15-.87-.33,1.41-.4.09-.72,1.37.14-.12.13.17.17.22a12.24,12.24,0,0,0-1.54,2.82l-.09-.28c-.95,1.72-1.72,3.78-2.83,5.68.47-.64.71-.31.43.28l-.42.07c0,.46.44-.54.24.33-.43.71-.59.31-.46-.15l-.39.93c-.11,0,0-.23-.12-.34,0,.46-1.12,1.35-1.11,2h-.11c-1.08,1.92-1.43,2.87-2.37,4.4.22.17-.2.74-.29,1.32-.77,1.08-1.72,2.21-2.53,3.58-.47,1,0,.41-.1.92-.25-.06-1.07,1.3-.79.5-1,1.62-1.32,2-2.5,4.17.23-.16.44-.37.42-.2-.21.39-.64.77-.71.65l0-.11a17.13,17.13,0,0,1-2.62,3.56,12.44,12.44,0,0,0-2.43,3.17l.05-.11-1.12,2c-.65.8.22-.61-.36-.09a13.09,13.09,0,0,1-1.71,2.55,14.38,14.38,0,0,0-1.7,2.15c-1.57.7-3.39,4.29-5.14,5.52l.21,0c-.23.51-.51.42-.81.68.14.05.51-.32.36,0-1.44,1.75-3.07,3.45-4.73,5.13s-3.52,3.18-5.2,4.79c-1.24,1.17,0,1.34-1.86,2.56l.2-.67a28,28,0,0,1-3.7,3.69,51,51,0,0,0-3.74,3.59c.1-.2,0-.28.28-.5a5.14,5.14,0,0,0-1.22,1c-.41.4-.71.79-.65.87-.42.31-.21-.06-.53.07-.64.34-1.18,1.37-1.63,1.43-.07,0,.11-.19.19-.29-.28.39-1.69,1.35-1.17,1.28-1.06.7-1.79,1.63-2.68,2.15-.31.66-1.76,1.25-1.68,1.7-.2-.41-2,1-2.52,1.67.13-.27-.64.3-.51,0-.73.55-1.35,1.12-1.08,1.21-1.67.56-2.47,2.36-3.63,2.36-2.1,1.73-4.12,3.23-6.09,4.67-.18-.42,2.22-1.53,1.87-1.86a41,41,0,0,1-4.7,3.67c-.54.26.18-.34.3-.53-1.86,1.39-3.86,2.26-5.5,3.53,0,0,.15-.19.32-.33-.35.22-.85.42-.71.58l.32-.25c.71-.08-1.08,1.36-1.06,1.53.3-.86-1.83.91-1.26-.29-.21.17-.45.42-.33.51-.36.17-.51.16-.24-.18-1.2.83-.63.8-1.8,1.4,0-.09.18-.24.24-.41a6.24,6.24,0,0,1-2,1.41c0-.09-.13-.09.17-.25-1.68.92-2.65,2-4.6,2.79.36-.68-.69.2-1-.08l-1,.62.48,0a15.58,15.58,0,0,1-2.35,1.35l.6-.45-1.66.84,1-.31c-.83.59.3.38-.94.84a10.83,10.83,0,0,1-1.46.43h0a4.35,4.35,0,0,1-1.51.86c-.22,0,0-.44-.18-.46-.3.49-2.06,1.05-2.48,1.61.15-.16.08-.34,0-.35l-.26.4c-.45.12-.53.12-.52-.06-1.28.54.59.25-1,.75.1-.07,0-.08.26-.23-1.52.62-2.85,1.42-4.3,1.87-.56-.18,1.19-.58.59-.68-2,.87-4,2.1-6,2.81l.38-.11c-.08.6-1.55.34-2.45,1,.23-.13.21-.4.17-.32-1.36.49-2.73,1.13-4.73,2l.21-.22c-.85.17-2.14.67-3,.91-.21.22-.72.37-.35.45a11,11,0,0,0-3.91,1.19,9.8,9.8,0,0,1-3.69,1.05c.28-.08.65-.31.42-.25l-2,.73c.23.17.31.05.79.1a3.9,3.9,0,0,1-1.28.63c.88-.42-.11-.36-.55-.36.09,0,0,.16,0,.22-1.19-.08-.05.5-1.6.66l0-.14a10,10,0,0,1-1.6.67c-.32-.19.55-.29.53-.52-.83.26-1.51,1-2.33.94.33-.18.84-.33,1.17-.5a3.72,3.72,0,0,0-1.59.17h.06l-1.45.27.38,0c-.86,1-2.11.65-3.41,1.45,1.27-.76.17-.3.2-.62-.39,0-1,.05-.82-.07-.62.4-1.17.08-2,.66-.06-.08-.72.16-.63-.11-.85.29.25.11.21.25-1.27.65-3.25.37-5.08,1.29-1.62.6-1.87,1-3.4,1.42-.56-.05.35-.43.35-.43a7.45,7.45,0,0,0-2.29.44c.14-.11,0-.15-.3-.21-.64.15-.36.43-1.24.46a2.21,2.21,0,0,1,.56-.51c-.74.23-1.45.56-2.22.8-.24-.13.43-.35.68-.51a8,8,0,0,0-2.48.91h.59c-.32.07-.21-.2,0-.29.71-.36,1.1-.12,1.17,0l-.55.17c.68.45,2.23-.52,3.36-.71l-.39.5,1.09-.56c.27,0,.48.25-.06.42.85,0,.69-.28,1.43-.2.08,0,0,.05,0,.08l.77-.27c-.14.11.19.26-.31.29,1.47,0,2.22-.75,2.82-.58l-.11,0c1.91-.61.12-.34,1.5-1l1.15.5.12-.34c.21,0,.61-.12.57,0,.7-.39-.16-.1.23-.4,1,0,2.63-.77,3-.35.29-.31-1,.05,0-.36.42.44,1.18-.37,2.12-.36-.21.33-1.08.4-.14.42.42-.58,1.75-.33,2.48-.59,0-.18.36-.32.92-.46s1.26-.35,1.86-.59c-.05.14,2.38-.49,3.57-.7l0,.07c.12-.42,1.33-.7,2.17-1,0,.22-.1.35-.54.58l.81-.24a2.36,2.36,0,0,1,.91-.49l-.13.32a22.05,22.05,0,0,1,3.53-1.18c0-.27-1.31-.35.1-1,.09.11.22.33-.15.5a2.46,2.46,0,0,1,.68-.29l-.51.43c.66-.12.27-.3.78-.45,0,.19.41,0,.39.18s-.46.07-.63.21A4.38,4.38,0,0,1,44,202.3c-.08-.09-.08-.26.32-.42,1.06-.39.44.1,1.09,0,.22-.22.94-.32.87-.61a.66.66,0,0,1,.56,0c.51-.32,2.56-.93,1.84-1l-.15,0,.08,0h0c1.71-.92,3.82-1.12,5.55-1.92l0,.1a29.44,29.44,0,0,0,3-1.51c.31-.12.8-.13.71,0a6.53,6.53,0,0,1,2-.85c-.74.48.34,0-.78.45a6.27,6.27,0,0,0,2.39-1c-.28.39.91,0,1.38-.29l-.8.12a15.33,15.33,0,0,1,1.54-.61l-.13.41a7.78,7.78,0,0,0,2.85-1.36,5.39,5.39,0,0,1,2.54-1.06c.46-.47-1.2.37-.82-.1a19.12,19.12,0,0,1,2.48-.58c1.4-.44,1-1,2.46-1.53-.23,0-.53-.23.45-.81,1-.4,1.4-.1.84.27-.23.12-.36.13-.37.09-.29.18-.68.42-.24.36l.08-.17c.53-.11,1.85-.73,1.62-.41.66-.48.23-.32-.34-.13,1.3-.45,1.89-1,3.19-1.52-.23,0-.48,0-.28-.08,1.89-.83.7-.62,1.91-1.32.78-.2,0,.52,1.12-.27.81-.29.3.2,0,.44a10.3,10.3,0,0,1,2.85-1.28l-.55.4a7.94,7.94,0,0,1,.92-.55l-.45,0c.37-.15.67-.3.71-.21.28-.33-.47-.2.14-.76.54-.13,1.34-.9,1.65-.72-1.48.75.31.19-.88.94a4.46,4.46,0,0,1,.87-.5c.07,0,0,.08-.1.15,1.5-.56.45-.68,1.87-1.51-.09.26.5.1.71-.07-.57.33-.42-.1,0-.52,1-.42.94-.67,1.42-.94l-.58.26c.1-.26.56-.51,1.16-.93.13.09-.52.42-.26.34.54-.68,1.75-.66,2.62-1.42.51-.16.21.26.66.09,1-.84,1.32-.49,2.33-1.4-.45,0-.47.1.19-.62-.59.45-1.16.93-1.76,1.35.35-.33.67-.71,1-1.06a16.23,16.23,0,0,1-1.47,1c.48-.5.45-.42.07-.42,1-.16,1.4-1.16,2.41-1.53l.29.51c1.46-.65,2.18-1.8,4-2.81l-.61.28c.1-.35,1-.73,1.54-1.17.06.19.45,0,.75,0-.11-.11,1.27-.82,1.19-1.25l.89-.33c1.39-.9,1.19-1.58,2.51-2.47-.26.46.4.14-.36.9.43-.32.83-.57.76-.69.32-.08,1-1.09,1.53-1.23.13-.2.06-.41.55-.75.08,0,.06.08.06.08s.67-.66.12-.53a8.2,8.2,0,0,0,2.63-1.62,8.89,8.89,0,0,1,2.38-1.69c.86-.79,1.9-1.72,2.7-2.4,0,.09.06.08-.1.19,1.24-.78.32-1,1.73-1.89.86-.29-.57.69-.08.44.3.18.67-.16,1.11-.58a4.88,4.88,0,0,1,1.43-1.23l-.18.21c.78-.41,1.38-1.58,2.43-2.48,0,0,0,.09.06.08a19.94,19.94,0,0,1,2.66-3.14c-.13.46-.35.51,0,.52.42-.42-.41-.18.42-1,.4-.15,1.07-.69,1.35-.57-.26.27-.52.55-.79.81.66-.15,1-1,1.49-1.42l.06.17c1.18-1.26.92-1.56,2.25-2.85l-.22,0c.44-1,.76-.45,1.27-1.37l.5.06c.39-.55,1.41-1.89,2.14-2.86a14.15,14.15,0,0,1-1.61,2.55,8.33,8.33,0,0,0,1.65-2,2.27,2.27,0,0,1-.53.69,9.48,9.48,0,0,1,1.82-2.68c.41.69,2.46-2.43,3.55-2.74,1.39-1.89,3.12-3.45,4.83-5.59-1.08.37.49-.62-.09-.88a2.82,2.82,0,0,1,.6-.72l1.51-1.26c.43-.24-.28.56-.13.6.92-1,.57-.3,1.28-.91-.28,0,.06-.57.59-1.16l-.89.72c.91-1.76,1.42-1,2.34-2.81l-.22.62c.51-.88,2.23-3,2.42-4.06.16-.11.44-.2.21.19.37-.48.74-1,1.08-1.54s.65-1.14,1-1.69a15.52,15.52,0,0,1,1.89-2.84l0,.23c.22-.39.21-.8.65-1.18,0,.06,0,.23.14.06a6,6,0,0,1,.86-1.57l-.15.51a8.69,8.69,0,0,0,1.47-2.54,23.75,23.75,0,0,1,1.07-2.45c.37.24,1.46-1.26,2-2l0,.06c1.52-2.29,2-4.21,3.11-6.49a15.49,15.49,0,0,0,2-3c.73-1.26,1.39-2.68,2.09-3.75-.25.31-.28-.21-.12-.63.34-.49.46-1.6.78-1.34l-.1.19c.55-.22,1-1.36,1.44-2.21l-.41-.37c1.78-1.91,2.43-6,3.63-7,.12-.61.44-1.28.55-1.88l.25.14a44.62,44.62,0,0,0,1.73-4.21l0,.47c.45-1.07-.22-1.66.17-2.66l.51-.14a26.89,26.89,0,0,0,2.08-5.7c0,.05.14.15,0,.46.33-.89,1.51-3.38.84-3.24.19.05.37-.44.53-1.07s.26-1.44.34-2l.22.25a5.33,5.33,0,0,1,.14-2.3c.13-.28.3-.19.11.18.44-.93,0-.84.49-2l0,.49a2.47,2.47,0,0,0,.19-1.54,4,4,0,0,1,.92-2,1.92,1.92,0,0,1,.08-1.36c.11,0,.11.18.11.3.64-1.64.37-2.59,1-3.68a.24.24,0,0,0,.21-.15c-.37,1.34-.68,2.41-.67,2.3.25.07.59-1,.69,0a12.71,12.71,0,0,1,.46-3.54.46.46,0,0,1,.12-.12v.12a2.23,2.23,0,0,0,.14-.68,5.12,5.12,0,0,0,.29-.86c.24-.08.41-1.23.55-1.77-.29,0-.08-.73-.46-.11,0-.08,0,.11-.06.47,0,.09,0,.18,0,.24v0c-.08.36-.19.83-.3,1.36a2.56,2.56,0,0,1,.24-1.51c-.11-.32-.22-.67-.26-.86.55-.66,1.09-2,1.37-2.19.12-.85.32-1.84.46-2.75a6.88,6.88,0,0,0,0-2.36c0-.49.25-.52.37-.68a4.32,4.32,0,0,0,0,.77c0-1,.5-2.83.18-3.12.4-1.17.2.73.46-.93l.07.25a10.77,10.77,0,0,0,.6-4.35,12.06,12.06,0,0,1,.69-4.6c-.08.25-.13.37-.19.41.88-4.1.8-8.56,1.61-12.62a3.83,3.83,0,0,0-.14-2l.32-.23c-.08-.41-.15-.83-.25-1.24-.18-1.74.88-3,.49-5.18l-.21.28c.07-.79,0-2.49.2-2.36A.62.62,0,0,1,192,6l.16,0L191.88,4c.12-1.5.62.25.67-1.95-.06-.82-.44-2.32-.55-2s-.11.84-.27.87l-.07-.75c-.47-.13-.94-.69-1.28,1.13l.28,1.26-.23.4V1.91a1.9,1.9,0,0,0,.1,1.41.88.88,0,0,0-.26.53l.44,1.25c-.19.14-.36-.56-.47.26.21.59.42-.55.54.42-.21.6-.38.42-.21,1.13-.12.1-.19,0-.24-.34.13.64,0,1.67.23,2-.29.62,0,2.13-.47,2.05a6,6,0,0,1,.29,1.7c-.49-1.08-.12,2.17-.69,1.85.4.81,0,2.84.12,4.24a.69.69,0,0,1-.06-.36,6.76,6.76,0,0,1-.4,1.48c.38.14.39,1.36.55,2-.49.91-.39-.63-.79-.37.33,0,.12,1.69.42,1.39-.32.71-.19.62-.55,1,.47.18,0,.68.23,1.32-.37,1-.49.22-.48,1.39C188.5,26.8,188.45,25.75,188.45,25.75Zm-4.36,27.34h0l.14-.55Zm-.61,2.25c.08-.27.18-.62.28-1,.11,0,.18.06.12.29C183.85,54.51,183.65,55,183.48,55.34ZM186.62,51c0,.37-.13.48-.19.52l.11-.64,0,0A.35.35,0,0,1,186.62,51Z"/><path class="cls-1" d="M186.42,50.29a.86.86,0,0,1,0-.15,2,2,0,0,0-.11.2l.06.15Z"/><path class="cls-1" d="M48.63,200.28h0Z"/><polygon class="cls-1" points="172.32 85.47 172.38 85.49 172.41 85.28 172.32 85.47"/><path class="cls-1" d="M36.07,203.32a.28.28,0,0,0-.18,0Z"/><path class="cls-1" d="M30.73,204.82l-.78.12C30.29,204.9,30.53,204.86,30.73,204.82Z"/><path class="cls-1" d="M26.56,205.75a.24.24,0,0,0,0,.14h0Z"/><path class="cls-1" d="M89,180l.13-.09C89.43,179.63,89.22,179.78,89,180Z"/><path class="cls-1" d="M71.49,190a5.17,5.17,0,0,1,.53-.39C71.68,189.75,71.43,189.86,71.49,190Z"/><polygon class="cls-1" points="107.51 167.25 107.51 167.25 107.63 167.17 107.51 167.25"/><path class="cls-1" d="M72.88,189.23a2.86,2.86,0,0,0-.86.39A5.54,5.54,0,0,0,72.88,189.23Z"/><path class="cls-1" d="M8.47,209.62l-.2,0s0,0,0,0Z"/><path class="cls-1" d="M8.25,209.7l-.22.07A.46.46,0,0,0,8.25,209.7Z"/><path class="cls-1" d="M7.58,209.93l.45-.16A.86.86,0,0,0,7.58,209.93Z"/><path class="cls-1" d="M14,208.67l.05-.11A.13.13,0,0,0,14,208.67Z"/><path class="cls-1" d="M15.72,208.31a8.22,8.22,0,0,0-1.6.16l0,.09C14.32,208.36,15.38,208.55,15.72,208.31Z"/><path class="cls-1" d="M23,207.89l-1.42.26c.27,0,.63.11,0,.29C23.41,208.32,21.14,208.29,23,207.89Z"/><path class="cls-1" d="M27.39,207c-.74.24.05.15,0,.22C27.87,207,28,206.94,27.39,207Z"/><path class="cls-1" d="M58.18,197l0,.26C58.74,197,58.17,197.12,58.18,197Z"/><polygon class="cls-1" points="63.4 193.42 62.8 193.49 62.64 193.81 63.4 193.42"/><polygon class="cls-1" points="67.47 193.59 67.25 193.73 68.12 193.23 67.47 193.59"/><path class="cls-1" d="M114,165.39l-.34-.14C113.4,165.56,113.55,165.89,114,165.39Z"/><path class="cls-1" d="M131.32,149.45a1.89,1.89,0,0,0,1-.87A13.16,13.16,0,0,0,131.32,149.45Z"/><polygon class="cls-1" points="172.07 92.18 171.96 92.66 172.25 91.81 172.07 92.18"/><path class="cls-1" d="M46,173.7c-.06-.07-.24-.15-.25-.06l.26.22Z"/><path class="cls-1" d="M45.19,173.91a1,1,0,0,0,.57.5c-.22-.24-.09-.2-.37-.48,0-.09.17-.08.27,0-.06-.07.13-.08,0-.22s-.36.09-.25.33A.41.41,0,0,1,45.19,173.91Z"/><path class="cls-1" d="M40.24,180.85l.06,0Z"/><path class="cls-1" d="M37,185a.07.07,0,0,0,0-.09S36.94,185,37,185Z"/><path class="cls-1" d="M36.12,185.43l.05,0S36.11,185.4,36.12,185.43Z"/><path class="cls-1" d="M40.24,180.85l-.16.06C40.16,181,40.18,180.89,40.24,180.85Z"/><path class="cls-1" d="M45.3,175.33a.3.3,0,0,0,0-.11.19.19,0,0,1,0,.08Z"/><path class="cls-1" d="M41.33,178.79l0,0-.09-.11Z"/><path class="cls-1" d="M42.23,177.27s.2.18.29.26c-.08-.08-.11-.13-.11-.17Z"/><path class="cls-1" d="M44.11,175.11v0Z"/><path class="cls-1" d="M40.56,179.81l-.09-.05Z"/><path class="cls-1" d="M3,212.39v0S2.93,212.38,3,212.39Z"/><polygon class="cls-1" points="1.04 210.4 1.07 210.4 1.18 210.28 1.04 210.4"/><path class="cls-1" d="M34.82,186.46h0C34.83,186.41,34.82,186.43,34.82,186.46Z"/><path class="cls-1" d="M24.4,197.15c.29.08,0,.42.37.47C24.68,197.55,24.66,197.14,24.4,197.15Z"/><path class="cls-1" d="M45.24,175.35l0,.07A.13.13,0,0,0,45.24,175.35Z"/><path class="cls-1" d="M24.77,197.62h0Z"/><path class="cls-1" d="M32.47,189.39l.11.06A.27.27,0,0,0,32.47,189.39Z"/><path class="cls-1" d="M34.62,187.56l-.07,0Z"/><path class="cls-1" d="M31.75,190.72s-.07,0-.08.06h0S31.69,190.72,31.75,190.72Z"/><path class="cls-1" d="M30.71,191.82l.06,0,0-.05Z"/><path class="cls-1" d="M7.83,210.68a1.63,1.63,0,0,1-.17-.2C7.77,210.65,7.59,210.81,7.83,210.68Z"/><path class="cls-1" d="M45.16,175.25c.06.05.08.08.08.1a.07.07,0,0,0,0,0Z"/><path class="cls-1" d="M33.32,192.29l-.2.15A.7.7,0,0,0,33.32,192.29Z"/><path class="cls-1" d="M17.5,205.15l0,.06A.06.06,0,0,0,17.5,205.15Z"/><path class="cls-1" d="M32.64,193a.4.4,0,0,0-.23,0,.36.36,0,0,0,0,.07Z"/><path class="cls-1" d="M7.66,210.48Z"/><path class="cls-1" d="M6.44,211.8c.24-.1,0-.38-.07-.59.22-.22.23.19.4.32.13-.17.1-.54.23-.58s.06.06.07.14c0-.35.49-.26.52-.68l.07.07a1.85,1.85,0,0,1-.25-.44c.09-.06.07-.3.21-.1-.06,0,0,.11,0,.19l.05-.14c.24.27-.08.17,0,.41.15-.2.24-.57.43-.55.19.29-.29.27,0,.44H7.86c.41.39-.15,0,.26.47.35-.06.26-.32.61-.38,0-.2-.15-.24-.17-.44.28-.51.72.6.84,0,0-.24-.19-.64.14-.55l.1.38c.31-.11-.09-.57.33-.5,0,.16-.17.23-.1.25.33.16,0-.27.18-.35l.19.28c.28-.21.5-.61.81-.84,0,.09,0,.22.15.27a2.16,2.16,0,0,1,1.43-.51l0-.34s.13.08.12.15c.21,0-.09-.16-.07-.3s.21.08.19.18c.16-.38.52-.93,1-.83v.11c.28,0-.06-.67.29-.56v.07c.55-.18.95-.73,1.56-.58-.15-.39.58-.14.3-.66.42.07.4.21.89.12.12,0,0-.41.05-.54l.17.26v-.39l.29.25.08-.14a.26.26,0,0,1-.22-.13c.11-.24.57-.12.66,0l.3-.5c.06.11,0,.19,0,.29.06-.41.23.25.28-.13-.07,0-.08-.17-.11-.22a.54.54,0,0,0,.59-.27l.08.2a11.32,11.32,0,0,0,1-.81c-.19,0-.37-.31-.29-.41l.23.24c-.05-.22-.18,0-.18-.33.15-.06.3.24.29.38l.09-.2c.07.07.06.14.12.24-.05-.21.47.07.37-.28l.06.07c.36-.25.46-.46.74-.68-.16-.23,0-.26-.06-.5a2.33,2.33,0,0,0,.86-.3c.09-.25-.09-.23-.11-.42.16.19.4,0,.38.23a2.57,2.57,0,0,0,.61-.8c-.11,0-.18,0-.21-.14s.22,0,.28.07v0c.19-.63,1.46-.16,1.45-.86v0l.17-.5c.18-.1,0,.23.24.25.1-.63.63-.43.75-.9.72.38.8-.74,1.42-.64l-.13-.12c0-.2.16,0,.25,0-.1-.09-.19,0-.21-.16.53-.76,1.56-1.05,2.36-1.56.28-.19-.48-.8.12-.78l.14.33c.21-.77,1-1,1.25-1.68,0,.08.1.15.05.2.27.07.38-.36.25-.5.09-.06.14.11.25.14s0-.47.27-.35c0,0,0,.08,0,.11,0-.15.33-.28.07-.41.27-.08.24-.43.5-.46-.13-.31.4-.21.12-.55.31.33.56-.06.52-.32.06.13.19,0,.29.17.12-.14.17-.31,0-.45.63.13.14-.78.78-.45a10.63,10.63,0,0,1,.64-1.47c.32.32-.32.43,0,.73.16-.47.05-.92.43-1.19.12-.05.1.18.13.26.16-.47.62-.64.7-1.11a.24.24,0,0,1,0,.15c0-.07.17-.1,0-.23v.1c-.31-.1-.27-.64-.38-.75.36.48.38-.21.81.43a.31.31,0,0,0-.14-.25c.08,0,.16,0,.22.16.1-.3-.13-.36,0-.56.07.07.07.13.14.23-.06-.23-.13-.46.07-.57,0,0,.12.08.07.13.22-.32,0-.83.41-1,.26.36.2,0,.51.19l0-.24-.2,0c.13-.15,0-.45.23-.51l0,.21.17-.33-.24.08c0-.28-.38-.28-.14-.42,0,.07.13-.14.36-.09h0c0-.14-.06-.3.09-.35s.31.27.39.3c-.19-.26.2-.42,0-.71a.63.63,0,0,0,.23.21l-.15-.22c.12,0,.16,0,.27.1.2-.19-.42-.22-.07-.35,0,0,0,0,0,.11.28-.2.24-.6.52-.76.35.15-.08.26.23.37.2-.38.17-1,.49-1.25l-.08,0c-.4-.35.4-.09.32-.4,0,.06.2.22.16.17.23-.18.22-.55.33-1l.08.12c.19-.06.31-.32.46-.43-.08-.12,0-.2-.2-.26,1,0,.25-1.1,1.07-1.15,0,.05,0,.18,0,.14l.13-.41c-.21-.1-.14,0-.34-.06a.38.38,0,0,1-.06-.36c0,.24.31.2.47.2a1.18,1.18,0,0,1-.18-.13c.46,0-.37-.28,0-.38l.09.08c0-.13-.07-.31,0-.39.25.1,0,.17.22.29.08-.15-.25-.55.06-.54,0,.1,0,.19,0,.29.36,0,.3,0,.41-.11h0l.27-.17-.11,0c-.48-.56.12-.44-.11-.92.22.46.19.17.43.35.11,0,.25-.07.31,0-.14-.25.28-.1.08-.45.09.05.08-.11.28,0,0-.19-.17,0-.27-.13-.13-.4.69-.33.49-.91,0-.39-.25-.61-.23-1,.18,0,.26.26.26.26a.32.32,0,0,0,.23-.4c.06.07.14.08.26.09s-.27-.25-.06-.33a1.67,1.67,0,0,1,.28.31c0-.18-.09-.4-.09-.57.17,0,.18.2.25.31,0-.19.09-.48-.11-.65l-.14.05c0-.07.21.08.23.15.11.23-.19.14-.28.1v-.13c-.56-.18-.15.43-.29.61l-.31-.29.18.38c-.12,0-.33-.1-.33-.23-.26,0,.06.2-.21.2a.06.06,0,0,1-.06,0l0,.2c-.06-.07-.27-.13-.17-.18-.34.12.05.55-.28.48v0c-.07.41.25.19.41.62l-.75-.21.25.19a.13.13,0,0,1-.19,0c.1.23.13,0,.25.22-.34,0-.17.52-.61.3.16.18.25-.06.28.2-.48-.23,0,.25-.35.27-.2-.19,0-.25-.29-.23.33.33-.27.23-.27.41.3.19,0,.35-.08.63-.09-.08-.42.29-.65.41l0,0c.29.24.1.4.07.59a.49.49,0,0,1-.26-.33l-.09.14a.3.3,0,0,1,.08.28l-.21-.18c-.11.18,0,.54-.29.66.21.16.72.22.69.56-.12-.07-.32-.19-.32-.29s0,.14,0,.15l-.12-.23c-.16,0,.12.17,0,.24-.17-.11-.16,0-.29-.12s.12,0,.08-.1a.53.53,0,0,1-.42.08c.1.05.22.15.19.23s-.23-.07-.39,0c.08.12-.11.16.13.33,0,0-.16,0-.24,0,0,.16-.26.45.07.53l0,0v0h0c0,.47-.57.53-.68.91l-.08-.06c0,.24-.23.43-.15.68,0,0-.24,0-.32-.07,0,.17,0,.25-.24.35,0-.24-.15,0,0-.21-.19.12-.35.07-.27.41a.19.19,0,0,0-.36.07h.24a.62.62,0,0,1-.2.25l-.23-.24c-.59.1.07,1.05-.67.91.12.24.27-.09.43.16-.16.13-.66,0-.7.06-.32.11.22.5-.06.65.11.05.38.22.33.46s-.55-.12-.54-.28a.06.06,0,0,1,.1,0c0-.08,0-.18-.13-.19l.08.09c-.16,0-.33.23-.44.06,0,.19.11.17.23.12-.3.1-.26.31-.52.45.08,0,.21.07.18.1-.36.21.07.27-.06.52-.24,0-.3-.32-.35,0-.2.05-.27-.18-.3-.29,0,.34-.4.26-.52.34v-.16a.26.26,0,0,1-.08.19l.23.1c-.08,0-.12.08-.2,0,.07.16.34.2.41.46-.16,0-.1.32-.36.15.28-.18-.27-.18-.14-.42,0,.06,0,.11-.12.14s0,0,0-.08c-.41.06.18.34,0,.57-.11-.14-.31-.16-.31-.1.08-.09.26.15.29.33-.24.06-.07.23-.15.3l.13-.05c.11.14,0,.21,0,.35-.11-.08,0-.16-.06-.16.13.32-.48.05-.47.35-.15,0-.25-.21-.37-.2,0,.34-.36,0-.39.36.23.1.2,0,.25.34l.15-.42.08.43c.09-.09.07-.3.15-.33.06.22,0,.17.21.26-.38-.11-.07.4-.38.39l-.44-.4c-.4.05-.13.61-.5.81l.16,0c.14.2-.13.21-.15.36a.67.67,0,0,0-.38-.17c.12.09-.2.2.06.49l-.31-.05c-.3.16.16.65-.1.82-.09-.21-.29-.21-.26-.46-.07.07-.16.12-.06.21-.13,0,0,.39-.21.33,0,.09.18.24.09.31a.14.14,0,0,1-.07-.06c.07.06,0,.22.19.3-.66-.2-.57.67-1.14.5a2.88,2.88,0,0,1-.39.59c0-.05-.07-.07,0-.08-.33.06.28.52-.09.6-.34-.12,0-.24-.16-.26-.49-.43-.21.33-.63.21v-.06c-.27-.05-.12.45-.34.6a.21.21,0,0,0-.07-.07,1.32,1.32,0,0,1-.19.94c-.12-.24,0-.18-.22-.33-.06.1.31.27.19.49a1.09,1.09,0,0,1-.56-.21l.15-.16c-.33-.19-.19.2-.32.23l-.1-.12c-.21.26.06.55-.23.77l.11.06c.12.42-.27,0-.22.29l-.31-.25a3,3,0,0,1-.2.8,2.14,2.14,0,0,1,0-.84c-.1.08-.3.31-.22.5,0-.06,0-.18.07-.17a.7.7,0,0,1-.15.76c-.48-.6-.63.3-1.15,0-.15.52-.76.48-1.13.85.53.34-.11.11.31.56-.07.11-.11.13-.14.11l-.52,0c-.18-.08,0-.18-.09-.27-.24.13-.26-.13-.49-.14.16.14.12.3,0,.33l.34.08c-.08.49-.57-.19-.66.3l0-.23c-.07.21-.54.45-.38.95-.07,0-.21-.13-.17-.22-.41.22-.49,1-1,1l-.07-.13c0,.08.06.31-.12.26,0-.06-.06-.14-.1-.13s0,.35-.16.35l0-.19c-.47.11-.3.74-.54,1.06a.69.69,0,0,0-.81-.21l0-.06c-.46.26-.51.81-.8,1.23-.52-.21-.95.43-1.49.49.1,0,.18.28.14.37s-.09.44-.3.09l0,0c-.3-.28-.43-.06-.59,0l.27.45c-.82-.38-.89.92-1.49.48,0,.18-.14.25-.16.43l-.15-.25a1.83,1.83,0,0,0-.75.44l0-.21c-.19.11.2.84,0,1l-.28-.33c-.33.21-.85.09-1,.61,0-.05-.08-.16,0-.21-.16.08-.75.11-.4.58-.19-.33-.36.17-.45.42l-.12-.26c0,.4.07.49-.09.7-.07,0-.15-.17,0-.14-.24,0,0,.31-.28.29v-.19c-.19.07-.13.15-.12.38s-.37.12-.52-.08c.05.14.05.38-.09.37a.2.2,0,0,1,0-.18c-.39,0-.28.52-.62.39a.39.39,0,0,0-.11-.13c.24-.12.43-.21.42-.18-.12-.23-.33-.16-.35-.56-.06.25-.12.77-.36.76l-.07-.07v0c-.05,0-.08,0-.1.1a.39.39,0,0,0-.19,0c-.12-.17-.26,0-.36.06.14.24,0,.27.22.41,0,0,0,0,0-.08a.09.09,0,0,0,0-.05v0l.22-.15c0,.17,0,.32-.2.24,0,.18.06.38.08.47-.32-.28-.66-.33-.81-.52-.21.3-.64.43-.58,1-.06.1-.17-.09-.24-.15s.09-.09.08-.17c-.11.2-.47.29-.35.64-.28,0,0-.36-.29-.16v-.13c-.83-.25-.52,1.31-1.48.94a.22.22,0,0,1,.13.08c-.84.05-1.39,1-2.26.64-.22-.06-.19.17-.28.37l-.1-.29-.16.38c-.31.29-.55-.68-.89-.23l0,.21c-.13-.05-.44.06-.37-.17,0,0-.09.19-.11.08l0-.16a1.61,1.61,0,0,1-.38.16c-.17-.19.27-.56,0-.71-.1,0-.52.2-.55.3s.05.16,0,.3l-.16,0c-.3.36-.76.62-.53,1.18a3.11,3.11,0,0,0,.44-.07v.25l-.27-.12c.05.26.24.15.4.09a.32.32,0,0,0,0,.28,3.76,3.76,0,0,0,.47-.3c0,.19-.26.3-.07.46.21-.15,0-.42.25-.49.09.24,0,.4.24.26a.22.22,0,0,1-.14.23c.19-.1.45,0,.56-.23.13.28.51,0,.5.4a1,1,0,0,1,.39-.39c-.21.55.51,0,.52.54.11-.49.63-.33.86-.67,0,0,0,.12-.06.11.18,0,.27.11.41.16-.1-.38.13-.54.17-.82.32.29,0,.48.22.8-.11-.3.23-.42.07-.65.23.17.17.06.36.33-.15-.46.11-.13.11-.45.3.13.24.4.4.16C6.57,211.55,6.44,211.8,6.44,211.8ZM11,208.56h0l-.09.07Zm.4-.22-.18.09c-.06-.08-.09-.18-.05-.2S11.3,208.3,11.4,208.34Zm-1.77-1.26c0-.07.09,0,.13,0l-.09.09v0A1.21,1.21,0,0,1,9.63,207.08Z"/><path class="cls-1" d="M9.69,207.47a0,0,0,0,1,0,0l.07,0,0-.09Z"/><path class="cls-1" d="M40.32,180.83h0Z"/><polygon class="cls-1" points="17.14 205.55 17.1 205.49 17.1 205.56 17.14 205.55"/><path class="cls-1" d="M42.53,179.29h0Z"/><path class="cls-1" d="M43.16,178.4l.17-.08A.68.68,0,0,0,43.16,178.4Z"/><path class="cls-1" d="M43.73,177.76l-.1-.07h0Z"/><path class="cls-1" d="M36.09,188.74s0,0,0,0S36.08,188.81,36.09,188.74Z"/><path class="cls-1" d="M38.1,185.25a.68.68,0,0,1,0,.19C38.19,185.39,38.23,185.35,38.1,185.25Z"/><polygon class="cls-1" points="33.34 192.27 33.34 192.27 33.32 192.29 33.34 192.27"/><path class="cls-1" d="M38,185.58a.15.15,0,0,0,.12-.14C38.08,185.47,38,185.5,38,185.58Z"/><path class="cls-1" d="M45.69,174.69l0,0,0,0Z"/><path class="cls-1" d="M45.68,174.64v-.06S45.66,174.62,45.68,174.64Z"/><path class="cls-1" d="M45.66,174.47l0,.11S45.72,174.52,45.66,174.47Z"/><path class="cls-1" d="M45,175.59l.09.07Z"/><path class="cls-1" d="M44.88,175.9c.06-.06.29-.06.29-.19l-.06-.05C45.21,175.78,44.77,175.75,44.88,175.9Z"/><path class="cls-1" d="M43.09,176.46l.22-.19c-.12,0-.28,0-.24-.16C42.61,176.24,43.32,176.18,43.09,176.46Z"/><path class="cls-1" d="M42.49,177.11c0-.15-.13-.08-.18-.12C42.34,177.12,42.35,177.16,42.49,177.11Z"/><path class="cls-1" d="M39,182.29l-.19-.17C38.77,182.24,38.89,182.18,39,182.29Z"/><polygon class="cls-1" points="39.35 184.04 39.54 184.04 39.39 183.86 39.35 184.04"/><polygon class="cls-1" points="37.47 183.5 37.47 183.44 37.43 183.65 37.47 183.5"/><path class="cls-1" d="M30.72,191.45l.25.19C31,191.55,30.74,191.29,30.72,191.45Z"/><path class="cls-1" d="M27.7,194.82c-.14-.08-.3-.07-.26.1C27.53,194.86,27.69,194.89,27.7,194.82Z"/><polygon class="cls-1" points="16.77 202.77 16.79 202.64 16.69 202.8 16.77 202.77"/><path class="cls-1" d="M72.22,207.29c0-.09-.06-.27-.15-.21v.34Z"/><path class="cls-1" d="M71.37,206.88a.94.94,0,0,0,0,.77c0-.34.11-.22.14-.62.09-.06.2.06.22.18,0-.09.17,0,.18-.19-.2-.21-.37-.18-.5.07C71.37,207,71.38,206.94,71.37,206.88Z"/><path class="cls-1" d="M61.25,208.72l.07,0Z"/><path class="cls-1" d="M55,209.71a.08.08,0,0,0,.05-.09S55,209.68,55,209.71Z"/><path class="cls-1" d="M53.84,209.53h.06S53.85,209.5,53.84,209.53Z"/><path class="cls-1" d="M61.25,208.72l-.19-.07C61.07,208.76,61.16,208.71,61.25,208.72Z"/><path class="cls-1" d="M70.2,208a.26.26,0,0,0,.07-.1l-.08,0Z"/><path class="cls-1" d="M63.93,207.88h0s0-.09,0-.15Z"/><path class="cls-1" d="M66,207.35s0,.27,0,.4a.29.29,0,0,1,.06-.21A.82.82,0,0,0,66,207.35Z"/><path class="cls-1" d="M69.45,207l0-.05Z"/><path class="cls-1" d="M62.42,208.14a.39.39,0,0,0,0-.09A.25.25,0,0,0,62.42,208.14Z"/><path class="cls-1" d="M2.41,212.7v0S2.39,212.69,2.41,212.7Z"/><polygon class="cls-1" points="0.1 211 0.14 210.99 0.17 210.83 0.1 211"/><path class="cls-1" d="M51.83,209.47h0C51.88,209.43,51.85,209.44,51.83,209.47Z"/><path class="cls-1" d="M33.78,211.45c.22.24-.32.34,0,.61C33.75,212,34,211.6,33.78,211.45Z"/><path class="cls-1" d="M70.13,208l-.08,0S70.12,208,70.13,208Z"/><path class="cls-1" d="M33.78,212.06h0l0,0Z"/><path class="cls-1" d="M47.33,210.25l.06.12S47.37,210.31,47.33,210.25Z"/><path class="cls-1" d="M50.76,210.2l-.09,0A.16.16,0,0,0,50.76,210.2Z"/><path class="cls-1" d="M45.63,210.86c-.05,0-.07-.05-.13,0l0,0S45.57,210.83,45.63,210.86Z"/><path class="cls-1" d="M43.8,211.06l0,.05,0,0Z"/><path class="cls-1" d="M8,213.19a1.1,1.1,0,0,1-.06-.26C8,213.13,7.71,213.18,8,213.19Z"/><path class="cls-1" d="M70.16,207.85c0,.07,0,.11,0,.13l.06,0S70.18,207.87,70.16,207.85Z"/><path class="cls-1" d="M45.8,213.08h-.3A1,1,0,0,0,45.8,213.08Z"/><path class="cls-1" d="M21.37,213.93l-.07,0A.07.07,0,0,0,21.37,213.93Z"/><path class="cls-1" d="M44.64,213.2a.77.77,0,0,0-.19-.18l0,.08Z"/><path class="cls-1" d="M8,212.93Z"/><path class="cls-1" d="M6,213.39c.28,0,.17-.34.25-.55.34-.07.12.29.22.49.22-.08.41-.4.57-.37,0,.06,0,.09,0,.16.25-.27.65,0,1-.29a.44.44,0,0,1,0,.1,2.1,2.1,0,0,1,0-.51c.13,0,.25-.21.28,0-.08,0-.09.08-.14.15l.15-.09c.08.36-.2.1-.22.36.27-.09.59-.35.78-.23,0,.34-.47.07-.24.4l-.29-.16c.18.55-.18-.06,0,.53.39.14.46-.12.86,0,.1-.18,0-.28.1-.46.59-.29.37.89.83.47.13-.22.2-.65.48-.4l-.13.38c.39.07.27-.53.65-.24-.08.14-.31.1-.26.15.24.32.2-.2.41-.19v.34c.42,0,.89-.23,1.36-.25,0,.09-.12.2,0,.31a3.15,3.15,0,0,1,1.77.36l.24-.28c.05,0,.08.13,0,.19.21.12,0-.19.14-.3s.15.18.07.26c.4-.23,1.12-.48,1.51-.14l-.09.08c.31.14.39-.58.67-.29l-.06.05c.67.16,1.44-.07,1.94.38.12-.42.68.21.74-.38.38.3.26.41.81.62.15,0,.23-.37.41-.42V214l.25-.32.13.37.17-.07a.24.24,0,0,1-.13-.23c.27-.14.64.23.65.39l.63-.25c0,.13-.12.17-.21.24.35-.3.06.33.37,0,0-.07,0-.18,0-.25a.77.77,0,0,0,.76.12l-.06.21c.47,0,1-.1,1.52-.1-.19-.1-.15-.47,0-.5l.06.33c.1-.21-.16-.13,0-.37.2,0,.13.37,0,.47l.24-.11c0,.1,0,.15-.06.27.1-.2.41.33.55,0l0,.1c.52,0,.76-.11,1.19-.13,0-.28.17-.22.3-.44a3.12,3.12,0,0,0,1,.26c.26-.15.07-.24.19-.41,0,.25.4.22.21.41a3.45,3.45,0,0,0,1.15-.29c-.07-.1-.14-.14-.11-.23s.24.1.23.22l0,0c.64-.4,1.51.71,2,.16l0,0,.52-.3c.25,0-.14.2,0,.35.56-.46.91,0,1.37-.29.4.73,1.29-.12,1.81.34l0-.18c.12-.18.16.09.26.13,0-.14-.15-.15-.07-.25a11,11,0,0,1,3.36.18c.41,0,.16-.93.7-.54l-.12.34c.79-.45,1.68-.12,2.44-.54,0,.08,0,.18-.11.19.19.22.63,0,.61-.25.13,0,0,.17.13.27s.4-.35.51-.12c0,0,0,.08-.07.1s.52,0,.38-.29c.32.11.56-.18.82,0,.12-.32.53.1.53-.34,0,.45.56.31.73.08-.05.14.18.12.13.31.21,0,.4-.14.33-.36.46.48.75-.54,1.06.12A10.82,10.82,0,0,1,49,212.1c0,.45-.63.12-.55.59.53-.25.79-.68,1.34-.63.15,0,0,.2-.09.28.52-.25,1.06-.11,1.51-.42a.21.21,0,0,1-.09.13c.1,0,.23,0,.19-.17l-.08.07c-.2-.27.29-.67.28-.83-.07.61.5.08.35.85a.3.3,0,0,0,.09-.29c.1,0,.14.1.07.27.32-.16.17-.36.48-.4,0,.1,0,.14-.06.27.13-.22.25-.43.53-.39,0,.06,0,.13,0,.14.44-.09.68-.62,1.2-.51-.08.45.19.12.27.48l.25-.15-.14-.16c.24,0,.4-.34.61-.26l-.14.19.42-.15-.27-.1c.2-.23-.1-.46.22-.41-.06.05.23,0,.39.16h0c.09-.14.19-.28.37-.22s0,.41.08.49c.06-.33.52-.18.61-.54a.55.55,0,0,0,0,.32l.05-.27c.12.06.14.1.15.26.33,0-.18-.45.23-.32,0,0,0,.06-.06.11.4,0,.71-.29,1.08-.23.18.36-.29.15-.11.44.5-.15,1-.63,1.47-.65l-.1,0c0-.53.41.19.61-.11,0,.05,0,.31,0,.24.35,0,.65-.26,1.13-.53l0,.15c.22.08.53,0,.76,0,0-.15.16-.15,0-.33.81.63,1.16-.65,1.87-.16-.07,0-.14.16-.08.15l.47-.24c-.09-.22-.1-.12-.24-.27a.43.43,0,0,1,.27-.32c-.19.21.08.37.2.47,0-.06,0-.15,0-.22.34.35-.06-.46.35-.27v.12c.11-.09.2-.27.35-.27.12.25-.11.15-.07.37.19-.06.28-.58.52-.37-.07.1-.19.12-.26.22.26.26.27.17.43.19h0l.37.06-.11-.07c.1-.73.48-.24.71-.76-.22.5,0,.26.05.56.11.06.26.12.24.21.11-.27.31.13.45-.27,0,.09.18,0,.2.22.19-.12-.09-.16-.1-.28.24-.39.84.21,1.19-.35.34-.28.33-.62.66-.87.16.12,0,.37,0,.37a.45.45,0,0,0,.54-.13c0,.09,0,.15.12.24.15-.06,0-.37.25-.28a2.18,2.18,0,0,1,0,.42c.15-.14.28-.36.44-.49.09.15,0,.28-.08.4.18-.12.49-.28.49-.56l-.16-.06c.07,0,.1.22.05.28-.12.25-.27,0-.31-.12l.12-.09c-.28-.52-.5.22-.77.25v-.43l-.18.41c-.08-.09-.18-.31-.07-.4-.23-.15-.13.18-.34,0,0,0,0-.05,0-.07l-.16.17c0-.1-.1-.28,0-.25-.39-.15-.45.44-.65.16l0,0c-.42.25,0,.31-.23.74l-.41-.67,0,.31s-.15,0-.16-.12c-.13.25.06.12,0,.34-.29-.21-.6.28-.76-.19,0,.25.26.13,0,.34-.19-.49-.26.15-.52,0,0-.28.23-.19,0-.37,0,.47-.42,0-.58.12.08.35-.34.23-.61.42,0-.13-.6-.07-.9-.14v-.06c0,.37-.27.37-.46.49a.46.46,0,0,1,.07-.43l-.2.05a.32.32,0,0,1-.18.26v-.27c-.25.07-.45.43-.82.32,0,.26.42.65.1.88,0-.13-.1-.36,0-.43s-.09.13-.16.09l.09-.26c-.17-.07,0,.21-.16.21,0-.19-.12-.12-.14-.28s.13.06.16,0a.55.55,0,0,1-.42-.23c0,.11,0,.26,0,.31-.26.07-.14-.21-.31-.28,0,.14-.23,0-.17.33-.08,0-.12-.12-.16-.19-.11.15-.62.16-.41.44h0l0,0h0c-.38.37-.94,0-1.35.23l0-.1c-.24.17-.56.18-.71.43-.07,0-.21-.14-.2-.26-.19.11-.19.23-.51.12.17-.21-.09-.14.19-.16-.28,0-.37-.19-.59.13,0-.27-.26-.28-.37-.18l.22.14a.86.86,0,0,1-.38.06v-.34c-.6-.3-.83.85-1.35.25-.1.26.31.12.24.41-.25,0-.59-.43-.67-.42-.36-.12-.22.53-.59.47.06.11.16.42-.09.57-.25,0-.38-.44-.24-.56s.09,0,.09.05.17-.12,0-.23v.12c-.14-.1-.47,0-.43-.23-.16.14,0,.21.1.24-.34-.11-.48.09-.83,0,.07.06.14.19.08.19-.49-.07-.17.26-.48.36-.21-.15,0-.44-.3-.24-.22-.09-.09-.31,0-.41-.26.27-.57-.07-.74-.09l.14-.11a.42.42,0,0,1-.24.09l.12.22c-.09,0-.17,0-.18-.12-.07.17.13.38,0,.62-.14-.1-.35.19-.44-.12.4,0-.08-.31.23-.41a.23.23,0,0,1-.23,0s0-.06,0-.08c-.41-.23-.12.37-.5.42,0-.18-.13-.32-.19-.27.15,0,.12.28,0,.44-.27-.1-.25.14-.38.14l.15,0c0,.19-.15.18-.31.26,0-.13.14-.11.07-.17-.14.34-.47-.25-.7,0-.14-.1-.06-.33-.17-.4-.27.27-.35-.2-.64,0,.12.23.13.17-.06.42l.49-.23-.28.39c.15,0,.3-.19.4-.16-.13.21-.12.15,0,.34-.26-.33-.39.26-.66.05l-.07-.59c-.4-.22-.61.38-1.11.29l.17.09c0,.24-.29.07-.43.18,0-.2-.12-.26-.2-.37,0,.14-.34,0-.34.42l-.24-.23c-.4-.05-.37.62-.75.6.09-.23-.1-.35.13-.53-.12,0-.24,0-.22.12-.09-.11-.31.31-.45.14,0,.09,0,.3-.17.3a.19.19,0,0,1,0-.1c0,.1-.2.16-.06.36-.45-.57-1.06.15-1.44-.34a5.77,5.77,0,0,1-.83.23c0-.06,0-.1,0-.09-.35-.14-.15.59-.55.42-.23-.29.18-.19,0-.3-.11-.64-.45.14-.75-.21l.06,0c-.21-.2-.46.29-.78.28a.19.19,0,0,0,0-.1,1.52,1.52,0,0,1-.9.61c.07-.26.13-.14,0-.4-.14.05.07.41-.2.51-.1-.14-.31-.24-.36-.51l.26,0c-.16-.34-.34,0-.48,0v-.16c-.39.08-.37.47-.8.48l0,.11c-.21.41-.21-.2-.43.1l-.1-.39a3.6,3.6,0,0,1-.79.52c.14-.3.45-.48.64-.67-.15,0-.52.07-.59.27.06,0,.14-.14.2-.09a.82.82,0,0,1-.72.51c0-.76-.81-.13-1.07-.72-.53.31-1.08-.06-1.71,0,.25.59-.19,0-.12.64-.15,0-.2,0-.22,0l-.46-.35c-.12-.17.13-.14.11-.27-.32,0-.15-.26-.37-.41.06.22-.09.32-.28.25l.27.27c-.44.34-.41-.5-.85-.15l.13-.2c-.23.12-.86,0-1.07.53,0-.07-.1-.24,0-.29-.56-.06-1.23.55-1.67.26l0-.15c-.11,0-.18.29-.31.14s0-.15,0-.16-.27.27-.41.19l.11-.17c-.55-.19-.83.43-1.28.54,0-.44-.44-.57-.65-.64v-.07c-.64,0-1.08.37-1.67.54-.36-.48-1.23-.2-1.82-.47.09.08,0,.34-.12.39s-.38.3-.36-.1h.05c-.1-.39-.38-.28-.6-.3l0,.53c-.57-.79-1.52.24-1.82-.46-.15.13-.32.12-.46.25l0-.28a2.79,2.79,0,0,0-1.06-.07l.11-.2c-.27,0-.37.81-.62.82l-.06-.43c-.47,0-.93-.4-1.41,0,0-.06,0-.18.11-.2-.22,0-.84-.33-.79.26,0-.38-.48-.06-.74.09l0-.28c-.23.35-.24.44-.55.53-.07,0-.05-.23,0-.15-.23-.16-.2.25-.47.09l.11-.17c-.24,0-.23.06-.37.26s-.46-.1-.48-.35c0,.15-.19.35-.33.27a.23.23,0,0,1,.07-.18c-.39-.21-.62.28-.88,0a.3.3,0,0,0,0-.17,3,3,0,0,1,.56.08c0-.25-.24-.32,0-.66-.22.18-.61.57-.85.43l0-.09,0,0a.17.17,0,0,0-.17,0,.52.52,0,0,0-.2-.09c0-.21-.29-.14-.42-.16,0,.28-.17.23,0,.47,0,0,0,0,.11,0l.06,0v0h.32c-.11.13-.23.24-.36.08l-.21.44c-.15-.41-.48-.65-.51-.89-.41.13-.94,0-1.23.54-.12.06-.12-.16-.15-.25s.14,0,.18-.11c-.23.12-.67,0-.75.37-.27-.19.19-.32-.21-.3l.06-.11c-.71-.66-1.33.81-2.11,0a.2.2,0,0,1,.09.14c-.93-.44-2,.12-2.93-.53-.26-.14-.31.09-.5.25l0-.31-.33.31c-.43.2-.6-.83-1.17-.41l0,.21c-.18-.06-.59,0-.53-.19,0,0-.09.21-.15.09l0-.16-.48.21c-.34-.15.13-.61-.37-.71-.19,0-.6.39-.54.51a.25.25,0,0,1,.16.28l-.18,0c-.1.46-.3.92.08,1.29L.56,212l.07.24-.26,0c.12.23.23.05.35-.06a.42.42,0,0,0,.09.26l.35-.4c0,.18-.18.34,0,.46.16-.18-.08-.42.16-.52.12.22,0,.39.24.23a.23.23,0,0,1-.11.24c.17-.13.4,0,.51-.25.12.28.51,0,.44.44a.8.8,0,0,1,.45-.31c-.32.49.5.09.37.64.24-.44.69-.12,1.05-.34,0,0-.07.11-.09.08.18.06.21.21.32.31.07-.38.37-.44.55-.67.18.4-.19.45-.16.82,0-.32.43-.28.38-.55.15.25.14.13.19.46.09-.48.17-.07.35-.35.22.27,0,.46.3.34C6.24,213.25,6,213.39,6,213.39Zm6.62-.26h0Zm.55,0a1.43,1.43,0,0,0-.23,0c0-.1,0-.2.07-.19S13.08,213.08,13.15,213.17Zm-1-2c.09,0,.12,0,.12.08l-.15,0v0A.39.39,0,0,1,12.13,211.14Z"/><path class="cls-1" d="M12,211.49l0,0,.05.07,0-.09Z"/><path class="cls-1" d="M61.33,208.75h0l0,0Z"/><polygon class="cls-1" points="20.75 214.05 20.75 213.98 20.7 214.04 20.75 214.05"/><path class="cls-1" d="M64.49,209.06s0,.05.06.06A.17.17,0,0,0,64.49,209.06Z"/><path class="cls-1" d="M65.79,208.83l.2.06A.53.53,0,0,0,65.79,208.83Z"/><path class="cls-1" d="M66.8,208.74a.41.41,0,0,0,0-.12h0Z"/><path class="cls-1" d="M51.09,212.05l0,0C51,212.14,51,212.11,51.09,212.05Z"/><path class="cls-1" d="M55.71,210.66l-.13.16C55.66,210.82,55.73,210.82,55.71,210.66Z"/><polygon class="cls-1" points="45.84 213.08 45.84 213.07 45.8 213.08 45.84 213.08"/><path class="cls-1" d="M55.36,210.85a.19.19,0,0,0,.22,0A.28.28,0,0,0,55.36,210.85Z"/><path class="cls-1" d="M71.08,207.81h0a.06.06,0,0,1,0,0Z"/><path class="cls-1" d="M71.12,207.76l0,0S71.12,207.73,71.12,207.76Z"/><path class="cls-1" d="M71.26,207.62l-.1.09S71.25,207.7,71.26,207.62Z"/><path class="cls-1" d="M69.75,208v.1A.46.46,0,0,0,69.75,208Z"/><path class="cls-1" d="M69.36,208.14c.1,0,.29.15.41.06v-.09C69.74,208.28,69.41,208,69.36,208.14Z"/><path class="cls-1" d="M67.43,207.33h.34c-.08-.09-.19-.21,0-.28C67.23,206.84,67.87,207.27,67.43,207.33Z"/><path class="cls-1" d="M66.37,207.41c.16-.09,0-.15,0-.21C66.24,207.32,66.21,207.35,66.37,207.41Z"/><path class="cls-1" d="M59,209l0-.26C58.81,208.8,59,208.84,59,209Z"/><polygon class="cls-1" points="57.79 210.56 57.95 210.69 57.98 210.45 57.79 210.56"/><polygon class="cls-1" points="56.62 208.91 56.68 208.86 56.46 209 56.62 208.91"/><path class="cls-1" d="M44.1,210.78l.07.31C44.26,211,44.24,210.67,44.1,210.78Z"/><path class="cls-1" d="M38.67,211.59c-.07-.16-.23-.25-.31-.08C38.48,211.52,38.61,211.63,38.67,211.59Z"/><polygon class="cls-1" points="22.26 211.56 22.37 211.46 22.16 211.54 22.26 211.56"/></g></g></svg>