<svg xmlns="http://www.w3.org/2000/svg" viewBox="0 0 18.46 20.56"><defs><style>.cls-1{fill:#b0b9cc;isolation:isolate;opacity:0.5;}</style></defs><g id="Layer_2" data-name="Layer 2"><g id="Layer_1-2" data-name="Layer 1"><path class="cls-1" d="M1.79,20.56a.66.66,0,0,1-.68-.49.93.93,0,0,1-.06-.43V14.76c0-.68.25-.93,1-.93H7a.84.84,0,0,1,.86.56.71.71,0,0,1-.12.62.76.76,0,0,1-.62.3H3.4l.55.56a5.79,5.79,0,0,0,2.84,1.79A9.22,9.22,0,0,0,9.32,18a7.61,7.61,0,0,0,5.13-2,7.53,7.53,0,0,0,2.41-4.75c0-.19.06-.37.06-.56a1.38,1.38,0,0,1,.06-.49.73.73,0,0,1,.74-.62h.06a.69.69,0,0,1,.68.68A8.49,8.49,0,0,1,18,13.09a8.92,8.92,0,0,1-5.49,5.74,8.93,8.93,0,0,1-3.28.62,9.56,9.56,0,0,1-5.12-1.6,4.2,4.2,0,0,0-.44-.31c-.12-.06-.18-.19-.3-.25s-.13-.12-.19-.12l-.49-.37-.06.61v1h0v1.42a.73.73,0,0,1-.62.74Z"/><path class="cls-1" d="M.74,11.05h0a.73.73,0,0,1-.74-.8A10.37,10.37,0,0,1,.43,7.47,9.39,9.39,0,0,1,5.37,1.91a8.71,8.71,0,0,1,3.52-.8h.25a9.29,9.29,0,0,1,6,2.22l.06.07.06.06.5.37.06-.62v-1h0V.8a.77.77,0,0,1,.74-.8A.89.89,0,0,1,17,.12a.71.71,0,0,1,.37.68V6.05c0,.5-.31.74-.8.74H11.42a.73.73,0,0,1-.8-.74.67.67,0,0,1,.19-.49.9.9,0,0,1,.61-.25h3l.74-.06-.49-.5A8.68,8.68,0,0,0,11,2.84a9.66,9.66,0,0,0-1.85-.18A7.57,7.57,0,0,0,2.22,7a6.52,6.52,0,0,0-.74,3v.3A.73.73,0,0,1,.74,11.05Z"/></g></g></svg>